<?xml version="1.0" encoding="utf-8"?>
<!-- Generator: Adobe Illustrator 26.0.3, SVG Export Plug-In . SVG Version: 6.00 Build 0)  -->
<svg version="1.1" xmlns="http://www.w3.org/2000/svg" xmlns:xlink="http://www.w3.org/1999/xlink" x="0px" y="0px"
	 viewBox="0 0 24 24" style="enable-background:new 0 0 24 24;" xml:space="preserve">
<style type="text/css">
	.st0{display:none;}
	.st1{display:inline;fill:none;}
	.st2{display:inline;fill:none;stroke:#888B86;stroke-width:0.05;stroke-miterlimit:10;}
	.st3{fill-rule:evenodd;clip-rule:evenodd;fill:#FFFFFF;stroke:#737374;stroke-linejoin:round;}
	.st4{fill-rule:evenodd;clip-rule:evenodd;fill:#F1F0F0;stroke:#737374;stroke-linejoin:round;}
	.st5{fill:#7A97CD;fill-opacity:0.44;}
	
		.st6{fill-rule:evenodd;clip-rule:evenodd;fill:url(#SVGID_1_);stroke:#3C3C3B;stroke-width:0.795;stroke-linecap:round;stroke-linejoin:round;}
	.st7{opacity:0.231;fill:url(#SVGID_00000100368101892784106060000006024660576014532261_);enable-background:new    ;}
	.st8{fill-rule:evenodd;clip-rule:evenodd;fill:#F1F3F2;}
	
		.st9{fill:url(#SVGID_00000103978132629722537300000014444581969074648493_);stroke:#3C3C3B;stroke-width:0.6713;stroke-linecap:round;stroke-linejoin:round;stroke-miterlimit:3.0972;}
	.st10{fill:#FFFFFF;fill-opacity:0.578;stroke:#3C3C3B;stroke-width:0.994;}
	.st11{fill-rule:evenodd;clip-rule:evenodd;fill:#CCCCCC;stroke:#737374;stroke-linejoin:round;}
	.st12{fill-rule:evenodd;clip-rule:evenodd;fill:#FFFFFF;}
	.st13{fill:#737374;}
	.st14{fill:#B4B4B4;fill-opacity:0.44;}
	.st15{fill:#989898;fill-opacity:0.44;}
	.st16{fill:#E6E6E5;stroke:#989898;stroke-linecap:square;}
	.st17{fill:#989898;fill-opacity:0.647;}
	.st18{fill:#989898;}
	.st19{fill:#D26464;}
	.st20{opacity:0.3;fill-rule:evenodd;clip-rule:evenodd;fill:#FDFEFF;enable-background:new    ;}
	
		.st21{fill-rule:evenodd;clip-rule:evenodd;fill:#FFFFFF;stroke:#FFFFFF;stroke-width:1.5;stroke-linecap:round;stroke-linejoin:round;}
	.st22{fill:#C3A12E;}
	.st23{fill:#FDFEFF;}
	.st24{fill-rule:evenodd;clip-rule:evenodd;fill:#CCCCCC;}
	.st25{fill:#BFCAE7;}
	.st26{fill-rule:evenodd;clip-rule:evenodd;fill:#F1F0F0;}
	.st27{fill:#425B76;}
	.st28{fill:#4E6A8A;}
	.st29{fill:#FFFFFF;}
	.st30{opacity:0.3;fill-rule:evenodd;clip-rule:evenodd;fill:#6D97C4;enable-background:new    ;}
	.st31{fill:none;stroke:#C3A12E;stroke-miterlimit:10;}
</style>
<g id="grid" class="st0">
	<rect x="0" y="0" class="st1" width="24" height="24"/>
	<circle class="st2" cx="12" cy="12" r="12"/>
	<rect x="6" y="0" class="st2" width="12" height="24"/>
	<line class="st2" x1="12" y1="0" x2="12" y2="24"/>
	<rect x="0" y="6" class="st2" width="24" height="12"/>
	<line class="st2" x1="0" y1="12" x2="24" y2="12"/>
	<rect x="3.51" y="3.51" class="st2" width="16.97" height="16.97"/>
	<circle class="st2" cx="12" cy="12" r="8.49"/>
	<circle class="st2" cx="12" cy="12" r="3"/>
	<circle class="st2" cx="12" cy="12" r="6"/>
</g>
<g id="Layer_2">
	<g>
		<polyline class="st24" points="0.51,21.5 21.51,21.5 21.51,7.66 16.51,2.5 0.51,2.5 0.51,21.5 		"/>
		<path class="st13" d="M0.51,21.5V22h21c0.13,0,0.26-0.05,0.35-0.15c0.09-0.09,0.15-0.22,0.15-0.35V7.66
			c0-0.13-0.05-0.25-0.14-0.35l-5-5.16C16.78,2.05,16.65,2,16.51,2h-16C0.38,2,0.25,2.05,0.16,2.15C0.07,2.24,0.01,2.37,0.01,2.5v19
			c0,0.13,0.05,0.26,0.15,0.35C0.25,21.95,0.38,22,0.51,22V21.5h0.5V3H16.3l4.71,4.87V21l-20.5,0V21.5h0.5H0.51"/>
		<polyline class="st12" points="3.51,18.5 23.51,18.5 23.51,5.39 18.75,0.5 3.51,0.5 3.51,18.5 		"/>
		<path class="st13" d="M3.51,18.5V19h20c0.13,0,0.26-0.05,0.35-0.15c0.09-0.09,0.15-0.22,0.15-0.35V5.39
			c0-0.13-0.05-0.26-0.14-0.35l-4.76-4.89C19.02,0.05,18.89,0,18.75,0H3.51C3.38,0,3.25,0.05,3.16,0.15
			C3.07,0.24,3.01,0.37,3.01,0.5v18c0,0.13,0.05,0.26,0.15,0.35C3.25,18.95,3.38,19,3.51,19V18.5h0.5V1h14.53l4.47,4.6V18H3.51V18.5
			h0.5H3.51"/>
		<polyline class="st25" points="18,2 5,2 5,3 5.01,3 5.01,17 13,17 13,16 6.01,16 6.01,3 18,3 18,2 		"/>
		<polygon class="st26" points="23.5,5.5 18.5,5.5 18.5,0.5 		"/>
		<path class="st13" d="M23.5,5.5V5H19V1.71l4.15,4.15L23.5,5.5V5V5.5l0.35-0.35l-5-5C18.71,0,18.49-0.04,18.31,0.04
			C18.12,0.12,18,0.3,18,0.5v5c0,0.13,0.05,0.26,0.15,0.35C18.24,5.95,18.37,6,18.5,6h5c0.2,0,0.38-0.12,0.46-0.31
			c0.08-0.19,0.03-0.4-0.11-0.54L23.5,5.5"/>
		<polyline class="st25" points="22,6 21,6 21,13 21.79,13 21.79,13 22,13 22,6 		"/>
		<path class="st27" d="M15.21,13h6.58c1.22,0,2.21,0.99,2.21,2.21v6.58c0,1.22-0.99,2.21-2.21,2.21h-6.58
			c-1.22,0-2.21-0.99-2.21-2.21v-6.58C13,13.99,13.99,13,15.21,13"/>
		<path class="st28" d="M18.5,14.1c-3.85,0-4.4,0-4.4,2.2v2.2h8.8c0,0,0,0,0-2.2C22.9,14.1,22.35,14.1,18.5,14.1"/>
		<polygon class="st12" points="16.36,19.11 18.97,17 18.99,18.39 22.43,18.35 22.44,19.74 19,19.78 19.01,21.17 		"/>
		<polygon class="st29" points="14.54,22.83 14.55,15.34 16.78,15.34 16.78,16.95 15.82,16.94 15.82,21.23 16.77,21.23 16.77,22.83 
					"/>
	</g>
</g>
</svg>
