<?xml version="1.0" encoding="utf-8"?>
<!-- Generator: Adobe Illustrator 26.0.3, SVG Export Plug-In . SVG Version: 6.00 Build 0)  -->
<svg version="1.1" xmlns="http://www.w3.org/2000/svg" xmlns:xlink="http://www.w3.org/1999/xlink" x="0px" y="0px"
	 viewBox="0 0 24 24" style="enable-background:new 0 0 24 24;" xml:space="preserve">
<style type="text/css">
	.st0{display:none;}
	.st1{display:inline;fill:none;}
	.st2{display:inline;fill:none;stroke:#888B86;stroke-width:0.05;stroke-miterlimit:10;}
	.st3{fill-rule:evenodd;clip-rule:evenodd;fill:#FFFFFF;stroke:#737374;stroke-linejoin:round;}
	.st4{fill-rule:evenodd;clip-rule:evenodd;fill:#F1F0F0;stroke:#737374;stroke-linejoin:round;}
	.st5{fill:#7A97CD;fill-opacity:0.44;}
	
		.st6{fill-rule:evenodd;clip-rule:evenodd;fill:url(#SVGID_1_);stroke:#3C3C3B;stroke-width:0.795;stroke-linecap:round;stroke-linejoin:round;}
	.st7{opacity:0.231;fill:url(#SVGID_00000173862225087775499670000006653090536488388241_);enable-background:new    ;}
	.st8{fill-rule:evenodd;clip-rule:evenodd;fill:#F1F3F2;}
	
		.st9{fill:url(#SVGID_00000044162088291639909220000016064912608769914508_);stroke:#3C3C3B;stroke-width:0.6713;stroke-linecap:round;stroke-linejoin:round;stroke-miterlimit:3.0972;}
	.st10{fill:#FFFFFF;fill-opacity:0.578;stroke:#3C3C3B;stroke-width:0.994;}
	.st11{fill-rule:evenodd;clip-rule:evenodd;fill:#CCCCCC;stroke:#737374;stroke-linejoin:round;}
	.st12{fill-rule:evenodd;clip-rule:evenodd;fill:#FFFFFF;}
	.st13{fill:#737374;}
	.st14{fill:#B4B4B4;fill-opacity:0.44;}
	.st15{fill:#989898;fill-opacity:0.44;}
	.st16{fill:#E6E6E5;stroke:#989898;stroke-linecap:square;}
	.st17{fill:#989898;fill-opacity:0.647;}
	.st18{fill:#989898;}
	.st19{fill:#D26464;}
	.st20{opacity:0.3;fill-rule:evenodd;clip-rule:evenodd;fill:#FDFEFF;enable-background:new    ;}
	
		.st21{fill-rule:evenodd;clip-rule:evenodd;fill:#FFFFFF;stroke:#FFFFFF;stroke-width:1.5;stroke-linecap:round;stroke-linejoin:round;}
	.st22{fill:#C3A12E;}
	.st23{fill:#FDFEFF;}
	.st24{fill:#425B76;}
	.st25{opacity:0.3;fill-rule:evenodd;clip-rule:evenodd;fill:#6D97C4;enable-background:new    ;}
	.st26{fill:#FFFFFF;}
	.st27{fill:none;stroke:#C3A12E;stroke-miterlimit:10;}
</style>
<g id="grid" class="st0">
	<rect x="0" y="0" class="st1" width="24" height="24"/>
	<circle class="st2" cx="12" cy="12" r="12"/>
	<rect x="6" class="st2" width="12" height="24"/>
	<line class="st2" x1="12" y1="0" x2="12" y2="24"/>
	<rect x="0" y="6" class="st2" width="24" height="12"/>
	<line class="st2" x1="0" y1="12" x2="24" y2="12"/>
	<rect x="3.51" y="3.51" class="st2" width="16.97" height="16.97"/>
	<circle class="st2" cx="12" cy="12" r="8.49"/>
	<circle class="st2" cx="12" cy="12" r="3"/>
	<circle class="st2" cx="12" cy="12" r="6"/>
</g>
<g id="Layer_2">
	<path class="st11" d="M0.51,21.5h21V7.66l-5-5.16h-16V21.5z"/>
	<path class="st3" d="M3.51,18.5h20V5.39L18.75,0.5H3.51V18.5z"/>
	<polygon class="st5" points="21.01,16 21.01,17 5.01,17 5.01,3 5,3 5,2 18,2 18,3 6.01,3 6.01,16 	"/>
	<path class="st4" d="M23.5,5.5h-5v-5L23.5,5.5z"/>
	<path class="st5" d="M21,6v7h1V6H21z"/>
	<g>
		<path class="st24" d="M15.21,13h6.58c1.22,0,2.21,0.99,2.21,2.21v6.58c0,1.22-0.99,2.21-2.21,2.21h-6.58
			c-1.22,0-2.21-0.99-2.21-2.21v-6.58C13,13.99,13.99,13,15.21,13z"/>
		<path class="st25" d="M14.1,18.5h8.8c0,0,0,0,0-2.2s-0.55-2.2-4.4-2.2s-4.4,0-4.4,2.2V18.5z"/>
	</g>
	<path class="st12" d="M20.62,19.06l-2.61,2.11L18,19.78l-3.45,0.04l-0.01-1.39l3.45-0.04L17.97,17
		C17.97,17,20.62,19.06,20.62,19.06z"/>
	<path class="st26" d="M22.44,15.34l-0.01,7.49l-2.23,0l0-1.61l0.95,0l0.01-4.28l-0.95,0l0-1.61L22.44,15.34z"/>
</g>
</svg>
