<?xml version="1.0" encoding="utf-8"?>
<!-- Generator: Adobe Illustrator 26.0.3, SVG Export Plug-In . SVG Version: 6.00 Build 0)  -->
<svg version="1.1" xmlns="http://www.w3.org/2000/svg" xmlns:xlink="http://www.w3.org/1999/xlink" x="0px" y="0px"
	 viewBox="0 0 24 24" style="enable-background:new 0 0 24 24;" xml:space="preserve">
<style type="text/css">
	.st0{display:none;}
	.st1{display:inline;fill:none;}
	.st2{display:inline;fill:none;stroke:#888B86;stroke-width:0.05;stroke-miterlimit:10;}
	.st3{fill-rule:evenodd;clip-rule:evenodd;fill:#FFFFFF;stroke:#737374;stroke-linejoin:round;}
	.st4{fill-rule:evenodd;clip-rule:evenodd;fill:#F1F0F0;stroke:#737374;stroke-linejoin:round;}
	.st5{fill:#7A97CD;fill-opacity:0.44;}
	
		.st6{fill-rule:evenodd;clip-rule:evenodd;fill:url(#SVGID_1_);stroke:#3C3C3B;stroke-width:0.795;stroke-linecap:round;stroke-linejoin:round;}
	.st7{opacity:0.231;fill:url(#SVGID_00000052798282215894083320000007715154514119678374_);enable-background:new    ;}
	.st8{fill-rule:evenodd;clip-rule:evenodd;fill:#F1F3F2;}
	
		.st9{fill:url(#SVGID_00000087370152955964997370000010075480189245341594_);stroke:#3C3C3B;stroke-width:0.6713;stroke-linecap:round;stroke-linejoin:round;stroke-miterlimit:3.0972;}
	.st10{fill:#FFFFFF;fill-opacity:0.578;stroke:#3C3C3B;stroke-width:0.994;}
	.st11{fill-rule:evenodd;clip-rule:evenodd;fill:#CCCCCC;stroke:#737374;stroke-linejoin:round;}
	.st12{fill-rule:evenodd;clip-rule:evenodd;fill:#FFFFFF;}
	.st13{fill:#737374;}
	.st14{fill:#B4B4B4;fill-opacity:0.44;}
	.st15{fill:#989898;fill-opacity:0.44;}
	.st16{fill:#E6E6E5;stroke:#989898;stroke-linecap:square;}
	.st17{fill:#989898;fill-opacity:0.647;}
	.st18{fill:#989898;}
	.st19{fill:#D26464;}
	.st20{opacity:0.3;fill-rule:evenodd;clip-rule:evenodd;fill:#FDFEFF;enable-background:new    ;}
	
		.st21{fill-rule:evenodd;clip-rule:evenodd;fill:#FFFFFF;stroke:#FFFFFF;stroke-width:1.5;stroke-linecap:round;stroke-linejoin:round;}
	.st22{fill:#C3A12E;}
	.st23{fill:#FDFEFF;}
	.st24{fill:#425B76;}
	.st25{opacity:0.3;fill-rule:evenodd;clip-rule:evenodd;fill:#6D97C4;enable-background:new    ;}
	.st26{fill:#FFFFFF;}
	.st27{fill:none;stroke:#C3A12E;stroke-miterlimit:10;}
</style>
<g id="grid" class="st0">
	<rect x="0" y="0" class="st1" width="24" height="24"/>
	<circle class="st2" cx="12" cy="12" r="12"/>
	<rect x="6" y="0" class="st2" width="12" height="24"/>
	<line class="st2" x1="12" y1="0" x2="12" y2="24"/>
	<rect x="0" y="6" class="st2" width="24" height="12"/>
	<line class="st2" x1="0" y1="12" x2="24" y2="12"/>
	<rect x="3.51" y="3.51" class="st2" width="16.97" height="16.97"/>
	<circle class="st2" cx="12" cy="12" r="8.49"/>
	<circle class="st2" cx="12" cy="12" r="3"/>
	<circle class="st2" cx="12" cy="12" r="6"/>
</g>
<g id="Layer_2">
	<g>
		<path class="st3" d="M0.5,19.5h21v-14l-5-5h-16V19.5z"/>
		<path class="st4" d="M21.5,5.5h-5v-5L21.5,5.5z"/>
		<polygon class="st5" points="20,17 20,18 2,18 2,2 16,2 16,3 3,3 3,17 		"/>
		<path class="st4" d="M21.5,5.5h-5v-5L21.5,5.5z"/>
		<path class="st5" d="M20,17V6h-1v11H20z"/>
		
			<linearGradient id="SVGID_1_" gradientUnits="userSpaceOnUse" x1="-144.5042" y1="-1097.4347" x2="-113.9642" y2="-1115.0657" gradientTransform="matrix(-0.0835 0.6802 -0.6768 -0.0831 -743.4802 15.6247)">
			<stop  offset="0" style="stop-color:#D4D7D0"/>
			<stop  offset="0.183" style="stop-color:#BBBEB6"/>
			<stop  offset="0.319" style="stop-color:#FFFFFF"/>
			<stop  offset="0.876" style="stop-color:#BBBEB6"/>
			<stop  offset="1" style="stop-color:#EEEEED"/>
		</linearGradient>
		<path class="st6" d="M7.17,8.32c-0.04-0.66,0.49-0.19,0.68,0c0.79,0.57,1.57,1.17,2.38,1.73c0.56,0.2,1.1-0.24,1.48-0.61
			c0.53-0.6,1.06-1.37,0.96-2.21c-0.08-0.43-0.53-0.59-0.82-0.84c-0.73-0.54-1.48-1.08-2.21-1.63c0.04-0.41,0.71-0.33,1.05-0.35
			c1.39,0.03,2.91,0.48,3.75,1.66c0.69,0.96,0.85,2.25,0.5,3.38c0.19,1.05,0.58,2.08,1.24,2.92l-2.45,1.8
			c-0.58-0.75-1.29-1.4-2.12-1.86c-1.24,0.18-2.5-0.4-3.25-1.39C7.76,10.18,7.33,9.27,7.17,8.32L7.17,8.32z"/>
		
			<linearGradient id="SVGID_00000133514408556380452150000007329370459516890288_" gradientUnits="userSpaceOnUse" x1="-2495.5154" y1="-1880.7166" x2="-2498.9822" y2="-1880.6276" gradientTransform="matrix(-0.2641 0.2067 -0.2688 -0.3456 -1147.9379 -118.4312)">
			<stop  offset="0" style="stop-color:#010101"/>
			<stop  offset="1" style="stop-color:#010101;stop-opacity:0"/>
		</linearGradient>
		
			<path style="opacity:0.231;fill:url(#SVGID_00000133514408556380452150000007329370459516890288_);enable-background:new    ;" d="
			M14,12.47c-0.29,0.22-0.35,0.64-0.12,0.93l4.09,5.98c0.22,0.29,0.99,0.06,1.28-0.17c0.29-0.23,0.7-0.92,0.48-1.21l-4.79-5.43
			C14.71,12.28,14.3,12.24,14,12.47C14.01,12.46,14.01,12.46,14,12.47L14,12.47z"/>
		<path class="st8" d="M7.42,8.35c0,0.01,0.02,0.01,0.02,0l2.54,1.87c0.34,0.25,0.8,0.16,1.19-0.05c0.4-0.21,0.8-0.55,1.14-1.02
			c0.34-0.47,0.54-0.99,0.61-1.44c0.07-0.44-0.01-0.88-0.34-1.12l-2.56-1.87c0-0.01,0-0.02,0-0.02c-0.02,0.01,0.01,0.01,0.02,0
			c1.24-0.13,2.63,0.18,3.48,0.82c1.18,0.86,1.6,2.42,1.16,3.85c-0.44,1.43-1.86,2.52-3.1,2.68c-0.8,0.1-1.63-0.09-2.31-0.59
			C8.41,10.84,7.69,9.59,7.42,8.35L7.42,8.35z"/>
		
			<linearGradient id="SVGID_00000089570329814908009260000014374368949347806602_" gradientUnits="userSpaceOnUse" x1="-1670.0441" y1="-2304.562" x2="-1677.265" y2="-2304.489" gradientTransform="matrix(-0.5225 0.4083 -0.2279 -0.293 -1382.0653 24.0609)">
			<stop  offset="0" style="stop-color:#F8E27F"/>
			<stop  offset="1" style="stop-color:#E4D289"/>
		</linearGradient>
		
			<path style="fill:url(#SVGID_00000089570329814908009260000014374368949347806602_);stroke:#3C3C3B;stroke-width:0.6713;stroke-linecap:round;stroke-linejoin:round;stroke-miterlimit:3.0972;" d="
			M15.09,9.88l7.42,8.6c0.44,0.57-0.02,1.66-1.04,2.45c-1.01,0.79-2.18,0.98-2.62,0.41l-6.55-9.02 M12,12.32
			c0,0,0.99-0.48,1.78-1.17c0.78-0.7,1.12-1.4,1.12-1.4 M20,19.04c-0.5,0.39-0.61,1.11-0.36,1.43c0.25,0.32,0.99,0.38,1.5-0.02
			c0.5-0.39,0.58-1.09,0.33-1.41C21.22,18.71,20.5,18.64,20,19.04L20,19.04z"/>
		<path class="st10" d="M13.88,14.08L16.38,12l0.3,0.34l-2.51,2.08L13.88,14.08z"/>
	</g>
</g>
</svg>
